# xmcd CD database file
#
# Track frame offsets:
#	150
#	19702
#	35562
#
# Disc length: 761 seconds
#
# Revision: 0
# Processed by: cddbd v1.5PL3 Copyright (c) Steve Scherf et al.
# Submitted via: CDex 1.50beta10
#
DISCID=1b02f703
DTITLE=PIERROT - PSYCHEDELIC LOVER
DYEAR=1900
DGENRE=Rock
TTITLE0=PSYCHEDELIC LOVER
TTITLE1=LANDSCAPE
TTITLE2=SUPER STRING THEORY (10th demension mix)
EXTD=
EXTT0=
EXTT1=
EXTT2=
PLAYORDER=
